<svg width="18" height="18" viewBox="0 0 18 18" xmlns="http://www.w3.org/2000/svg">
    <g>
        <path d="M8.015.003H9c2.931 0 3.279.01 4.436.063 1.07.049 1.652.228 2.039.378.512.199.877.437 1.261.821.385.385.622.75.822 1.263.15.386.33.968.378 2.038.053 1.158.064 1.505.064 4.435 0 2.93-.011 3.278-.064 4.436-.049 1.07-.228 1.651-.378 2.038a3.395 3.395 0 0 1-.822 1.261c-.384.385-.749.623-1.261.822-.387.15-.968.329-2.039.378C12.28 17.989 11.931 18 9 18s-3.279-.011-4.436-.064c-1.07-.05-1.651-.228-2.039-.379a3.4 3.4 0 0 1-1.262-.82 3.403 3.403 0 0 1-.822-1.263c-.15-.386-.33-.967-.378-2.038C.011 12.279 0 11.931 0 8.999 0 6.067.01 5.72.063 4.563c.05-1.07.228-1.651.378-2.038.2-.513.438-.879.822-1.263.384-.384.75-.622 1.262-.822.387-.15.968-.33 2.039-.378C5.577.016 5.969.002 8.015 0v.003zm6.845 1.823a1.317 1.317 0 1 0 0 2.635 1.317 1.317 0 0 0 0-2.636zM9 3.366a5.639 5.639 0 1 0 .002 11.276A5.639 5.639 0 0 0 9 3.365z"/>
        <path d="M9 5.344a3.66 3.66 0 1 1 0 7.32 3.66 3.66 0 0 1 0-7.32z"/>
    </g>
</svg>
